<svg xmlns="http://www.w3.org/2000/svg" viewBox="0 0 1280 720" width="1280" height="720" role="img" aria-label="datastore-save-system">
  <defs>
    <linearGradient id="bg" x1="0" y1="0" x2="1" y2="1">
      <stop offset="0%" stop-color="#0a0a10"/><stop offset="55%" stop-color="#101019"/><stop offset="100%" stop-color="#08080d"/>
    </linearGradient>
    <linearGradient id="accent" x1="0" y1="0" x2="1" y2="1">
      <stop offset="0%" stop-color="#34D399"/><stop offset="100%" stop-color="#3D8BFF"/>
    </linearGradient>
    <radialGradient id="glow"><stop offset="0%" stop-color="#34D399" stop-opacity="0.5"/><stop offset="100%" stop-color="#34D399" stop-opacity="0"/></radialGradient>
    <pattern id="grid" width="48" height="48" patternUnits="userSpaceOnUse">
      <path d="M48 0H0V48" fill="none" stroke="#ffffff" stroke-opacity="0.035" stroke-width="1"/>
    </pattern>
  </defs>
  <rect width="1280" height="720" fill="url(#bg)"/>
  <rect width="1280" height="720" fill="url(#grid)"/>
  <ellipse cx="518.4225790500641" cy="446.4" rx="704" ry="216" fill="url(#glow)" opacity="0.55"/>
  <rect x="210" y="150" width="573.7364840880036" height="11" rx="5" fill="#34D399" opacity="0.75"/>
  <rect x="232" y="176" width="348.9981825882569" height="11" rx="5" fill="#ffffff" opacity="0.14390505737625062"/>
  <rect x="254" y="202" width="190.24254130665213" height="11" rx="5" fill="#ffffff" opacity="0.1933622527308762"/>
  <rect x="210" y="228" width="327.2762786457315" height="11" rx="5" fill="#ffffff" opacity="0.13902554380707444"/>
  <rect x="232" y="254" width="427.43697742465883" height="11" rx="5" fill="#ffffff" opacity="0.19141335162799805"/>
  <rect x="254" y="280" width="458.6942566046491" height="11" rx="5" fill="#34D399" opacity="0.75"/>
  <rect x="210" y="306" width="507.12478931061924" height="11" rx="5" fill="#ffffff" opacity="0.13076008939184247"/>
  <rect x="232" y="332" width="388.83299496024847" height="11" rx="5" fill="#ffffff" opacity="0.1663693222589791"/>
  <rect x="254" y="358" width="478.4720337577164" height="11" rx="5" fill="#ffffff" opacity="0.20737714142538607"/>
  <rect x="210" y="384" width="526.0678238654509" height="11" rx="5" fill="#ffffff" opacity="0.178912771390751"/>
  <rect x="232" y="410" width="339.54693109262735" height="11" rx="5" fill="#34D399" opacity="0.75"/>
  <rect x="254" y="436" width="474.0932120895013" height="11" rx="5" fill="#ffffff" opacity="0.1475361790880561"/>
  <rect x="210" y="462" width="282.83973031677306" height="11" rx="5" fill="#ffffff" opacity="0.11487366104498506"/>
  <rect x="232" y="488" width="589.1858403990045" height="11" rx="5" fill="#ffffff" opacity="0.15204368146602065"/>
  <rect x="254" y="514" width="637.0666824048385" height="11" rx="5" fill="#ffffff" opacity="0.20927212237380444"/>
  <rect x="210" y="540" width="460.69623611401767" height="11" rx="5" fill="#34D399" opacity="0.75"/>
  <rect x="150" y="128" width="8" height="448" rx="4" fill="#3D8BFF" opacity="0.5"/>
  <rect width="1280" height="720" fill="none" stroke="#ffffff" stroke-opacity="0.06" stroke-width="2"/>
</svg>