<svg xmlns="http://www.w3.org/2000/svg" viewBox="0 0 1280 720" width="1280" height="720" role="img" aria-label="modern-city-map">
  <defs>
    <linearGradient id="bg" x1="0" y1="0" x2="1" y2="1">
      <stop offset="0%" stop-color="#0a0a10"/><stop offset="55%" stop-color="#101019"/><stop offset="100%" stop-color="#08080d"/>
    </linearGradient>
    <linearGradient id="accent" x1="0" y1="0" x2="1" y2="1">
      <stop offset="0%" stop-color="#7C5CFF"/><stop offset="100%" stop-color="#3D8BFF"/>
    </linearGradient>
    <radialGradient id="glow"><stop offset="0%" stop-color="#7C5CFF" stop-opacity="0.5"/><stop offset="100%" stop-color="#7C5CFF" stop-opacity="0"/></radialGradient>
    <pattern id="grid" width="48" height="48" patternUnits="userSpaceOnUse">
      <path d="M48 0H0V48" fill="none" stroke="#ffffff" stroke-opacity="0.035" stroke-width="1"/>
    </pattern>
  </defs>
  <rect width="1280" height="720" fill="url(#bg)"/>
  <rect width="1280" height="720" fill="url(#grid)"/>
  <ellipse cx="390.20845687389374" cy="446.4" rx="704" ry="216" fill="url(#glow)" opacity="0.55"/>
  <g>
        <path d="M78.53142272913828 472.06007153727114 L155.50019726273604 446.01058191619813 L232.4689717963338 472.06007153727114 L232.4689717963338 600 L78.53142272913828 600 Z" fill="#171724" stroke="#2b2b3d" stroke-width="2"/>
        <path d="M78.53142272913828 472.06007153727114 L155.50019726273604 446.01058191619813 L155.50019726273604 600 L78.53142272913828 600 Z" fill="#7C5CFF" opacity="0.45"/>
  <rect x="99.31427557648865" y="492.06007153727114" width="16" height="22" rx="3" fill="#3D8BFF" opacity="0.7236549910390749"/>
  <rect x="91.46918573742524" y="547.0600715372711" width="16" height="22" rx="3" fill="#3D8BFF" opacity="0.5469227216904983"/>
  </g>
  <g>
        <path d="M200.81930599123655 440.18580591492355 L284.814896113886 411.6762962657958 L368.81048623653544 440.18580591492355 L368.81048623653544 600 L200.81930599123655 600 Z" fill="#171724" stroke="#2b2b3d" stroke-width="2"/>
        <path d="M200.81930599123655 440.18580591492355 L284.814896113886 411.6762962657958 L284.814896113886 600 L200.81930599123655 600 Z" fill="#1d1d2c" opacity="1"/>
  <rect x="219.09832366580306" y="515.1858059149235" width="16" height="22" rx="3" fill="#3D8BFF" opacity="0.831621983111836"/>
  </g>
  <g>
        <path d="M324.6794960008831 360.26422728877515 L367.3465404230067 320.5124220578 L410.01358484513025 360.26422728877515 L410.01358484513025 600 L324.6794960008831 600 Z" fill="#171724" stroke="#2b2b3d" stroke-width="2"/>
        <path d="M324.6794960008831 360.26422728877515 L367.3465404230067 320.5124220578 L367.3465404230067 600 L324.6794960008831 600 Z" fill="#1d1d2c" opacity="1"/>
  <rect x="337.65809946231315" y="490.26422728877515" width="16" height="22" rx="3" fill="#3D8BFF" opacity="0.6323795195436105"/>
  </g>
  <g>
        <path d="M462.93360046188656 307.45416186656803 L566.635696843344 271.3063178351149 L670.3377932248015 307.45416186656803 L670.3377932248015 600 L462.93360046188656 600 Z" fill="#171724" stroke="#2b2b3d" stroke-width="2"/>
        <path d="M462.93360046188656 307.45416186656803 L566.635696843344 271.3063178351149 L566.635696843344 600 L462.93360046188656 600 Z" fill="#7C5CFF" opacity="0.45"/>
  <rect x="480.5221805195799" y="437.45416186656803" width="16" height="22" rx="3" fill="#3D8BFF" opacity="0.5499951198231429"/>
  </g>
  <g>
        <path d="M571.8626905258538 329.2453838409856 L643.6781775313689 291.70933349523693 L715.4936645368839 329.2453838409856 L715.4936645368839 600 L571.8626905258538 600 Z" fill="#171724" stroke="#2b2b3d" stroke-width="2"/>
        <path d="M571.8626905258538 329.2453838409856 L643.6781775313689 291.70933349523693 L643.6781775313689 600 L571.8626905258538 600 Z" fill="#1d1d2c" opacity="1"/>
  <rect x="602.4830974881087" y="349.2453838409856" width="16" height="22" rx="3" fill="#3D8BFF" opacity="0.5373650187626481"/>
  <rect x="591.3220911976085" y="459.2453838409856" width="16" height="22" rx="3" fill="#3D8BFF" opacity="0.5497770648449659"/>
  <rect x="587.8929092858182" y="569.2453838409856" width="16" height="22" rx="3" fill="#3D8BFF" opacity="0.5250541634391993"/>
  </g>
  <g>
        <path d="M690.8522110639346 412.2699790010229 L779.6975577014705 385.4823700385168 L868.5429043390063 412.2699790010229 L868.5429043390063 600 L690.8522110639346 600 Z" fill="#171724" stroke="#2b2b3d" stroke-width="2"/>
        <path d="M690.8522110639346 412.2699790010229 L779.6975577014705 385.4823700385168 L779.6975577014705 600 L690.8522110639346 600 Z" fill="#1d1d2c" opacity="1"/>
  <rect x="727.9063075584603" y="432.2699790010229" width="16" height="22" rx="3" fill="#3D8BFF" opacity="0.4447850466473028"/>
  <rect x="715.8157974804906" y="487.2699790010229" width="16" height="22" rx="3" fill="#3D8BFF" opacity="0.397679221490398"/>
  <rect x="710.878944032277" y="542.2699790010229" width="16" height="22" rx="3" fill="#3D8BFF" opacity="0.45535173420794306"/>
  </g>
  <g>
        <path d="M814.9397829120668 274.4759532548487 L866.5620696734792 246.5394406579435 L918.1843564348916 274.4759532548487 L918.1843564348916 600 L814.9397829120668 600 Z" fill="#171724" stroke="#2b2b3d" stroke-width="2"/>
        <path d="M814.9397829120668 274.4759532548487 L866.5620696734792 246.5394406579435 L866.5620696734792 600 L814.9397829120668 600 Z" fill="#7C5CFF" opacity="0.45"/>
  <rect x="829.7610527348644" y="404.4759532548487" width="16" height="22" rx="3" fill="#3D8BFF" opacity="0.770495337806642"/>
  <rect x="833.7796531502688" y="459.4759532548487" width="16" height="22" rx="3" fill="#3D8BFF" opacity="0.5957081843167543"/>
  <rect x="830.449693908987" y="514.4759532548487" width="16" height="22" rx="3" fill="#3D8BFF" opacity="0.6775271822931245"/>
  <rect x="828.3371693284283" y="569.4759532548487" width="16" height="22" rx="3" fill="#3D8BFF" opacity="0.40050982709508387"/>
  </g>
  <g>
        <path d="M937.3610710363007 264.4283637665212 L981.1439266147661 226.2033856473863 L1024.9267821932315 264.4283637665212 L1024.9267821932315 600 L937.3610710363007 600 Z" fill="#171724" stroke="#2b2b3d" stroke-width="2"/>
        <path d="M937.3610710363007 264.4283637665212 L981.1439266147661 226.2033856473863 L981.1439266147661 600 L937.3610710363007 600 Z" fill="#1d1d2c" opacity="1"/>
  <rect x="949.7323211831656" y="284.4283637665212" width="16" height="22" rx="3" fill="#3D8BFF" opacity="0.727987572341226"/>
  <rect x="957.861796099093" y="449.4283637665212" width="16" height="22" rx="3" fill="#3D8BFF" opacity="0.8445990516571328"/>
  <rect x="949.7011963936809" y="504.4283637665212" width="16" height="22" rx="3" fill="#3D8BFF" opacity="0.7610048994189128"/>
  <rect x="958.1407642515476" y="559.4283637665212" width="16" height="22" rx="3" fill="#3D8BFF" opacity="0.5280216362094506"/>
  </g>
  <g>
        <path d="M1064.2284010332596 402.603469658643 L1104.1357125149161 373.386138305068 L1144.0430239965726 402.603469658643 L1144.0430239965726 600 L1064.2284010332596 600 Z" fill="#171724" stroke="#2b2b3d" stroke-width="2"/>
        <path d="M1064.2284010332596 402.603469658643 L1104.1357125149161 373.386138305068 L1104.1357125149161 600 L1064.2284010332596 600 Z" fill="#1d1d2c" opacity="1"/>
  <rect x="1077.8212160242008" y="422.603469658643" width="16" height="22" rx="3" fill="#3D8BFF" opacity="0.436833813926205"/>
  <rect x="1082.097315630431" y="477.603469658643" width="16" height="22" rx="3" fill="#3D8BFF" opacity="0.7943362205056473"/>
  <rect x="1077.9409511526549" y="532.603469658643" width="16" height="22" rx="3" fill="#3D8BFF" opacity="0.6541655601700768"/>
  <rect x="1080.5976357752857" y="587.603469658643" width="16" height="22" rx="3" fill="#3D8BFF" opacity="0.3587629458867013"/>
  </g>
  <path d="M0 600 L1280 600 L1280 720 L0 720 Z" fill="#0d0d15"/>
  <rect x="30" y="654" width="86" height="5" rx="2" fill="#7C5CFF" opacity="0.3"/>
  <rect x="180" y="654" width="86" height="5" rx="2" fill="#7C5CFF" opacity="0.3"/>
  <rect x="330" y="654" width="86" height="5" rx="2" fill="#7C5CFF" opacity="0.3"/>
  <rect x="480" y="654" width="86" height="5" rx="2" fill="#7C5CFF" opacity="0.3"/>
  <rect x="630" y="654" width="86" height="5" rx="2" fill="#7C5CFF" opacity="0.3"/>
  <rect x="780" y="654" width="86" height="5" rx="2" fill="#7C5CFF" opacity="0.3"/>
  <rect x="930" y="654" width="86" height="5" rx="2" fill="#7C5CFF" opacity="0.3"/>
  <rect x="1080" y="654" width="86" height="5" rx="2" fill="#7C5CFF" opacity="0.3"/>
  <rect x="1230" y="654" width="86" height="5" rx="2" fill="#7C5CFF" opacity="0.3"/>
  <rect width="1280" height="720" fill="none" stroke="#ffffff" stroke-opacity="0.06" stroke-width="2"/>
</svg>