<svg xmlns="http://www.w3.org/2000/svg" viewBox="0 0 1280 720" width="1280" height="720" role="img" aria-label="modular-build-kit">
  <defs>
    <linearGradient id="bg" x1="0" y1="0" x2="1" y2="1">
      <stop offset="0%" stop-color="#0a0a10"/><stop offset="55%" stop-color="#101019"/><stop offset="100%" stop-color="#08080d"/>
    </linearGradient>
    <linearGradient id="accent" x1="0" y1="0" x2="1" y2="1">
      <stop offset="0%" stop-color="#FBBF24"/><stop offset="100%" stop-color="#7C5CFF"/>
    </linearGradient>
    <radialGradient id="glow"><stop offset="0%" stop-color="#FBBF24" stop-opacity="0.5"/><stop offset="100%" stop-color="#FBBF24" stop-opacity="0"/></radialGradient>
    <pattern id="grid" width="48" height="48" patternUnits="userSpaceOnUse">
      <path d="M48 0H0V48" fill="none" stroke="#ffffff" stroke-opacity="0.035" stroke-width="1"/>
    </pattern>
  </defs>
  <rect width="1280" height="720" fill="url(#bg)"/>
  <rect width="1280" height="720" fill="url(#grid)"/>
  <ellipse cx="543.5819574594498" cy="446.4" rx="704" ry="216" fill="url(#glow)" opacity="0.55"/>
  <g>
        <path d="M67.106852454599 433.355372145772 L106.61514752195217 398.1568392366171 L146.12344258930534 433.355372145772 L146.12344258930534 600 L67.106852454599 600 Z" fill="#171724" stroke="#2b2b3d" stroke-width="2"/>
        <path d="M67.106852454599 433.355372145772 L106.61514752195217 398.1568392366171 L106.61514752195217 600 L67.106852454599 600 Z" fill="#FBBF24" opacity="0.45"/>
  <rect x="79.3078377826285" y="453.355372145772" width="16" height="22" rx="3" fill="#7C5CFF" opacity="0.7250151987187564"/>
  </g>
  <g>
        <path d="M190.00351377711115 470.16644335724413 L294.73388960649675 430.2858784329146 L399.46426543588234 470.16644335724413 L399.46426543588234 600 L190.00351377711115 600 Z" fill="#171724" stroke="#2b2b3d" stroke-width="2"/>
        <path d="M190.00351377711115 470.16644335724413 L294.73388960649675 430.2858784329146 L294.73388960649675 600 L190.00351377711115 600 Z" fill="#1d1d2c" opacity="1"/>
  <rect x="247.66594625875229" y="490.16644335724413" width="16" height="22" rx="3" fill="#7C5CFF" opacity="0.7045911771943792"/>
  <rect x="204.0977968342014" y="545.1664433572441" width="16" height="22" rx="3" fill="#7C5CFF" opacity="0.6433259772835299"/>
  <rect x="204.9702050905681" y="600.1664433572441" width="16" height="22" rx="3" fill="#7C5CFF" opacity="0.6015454054810107"/>
  </g>
  <g>
        <path d="M322.61615931651454 237.88765669520944 L429.30089480605807 210.09389308746904 L535.9856302956016 237.88765669520944 L535.9856302956016 600 L322.61615931651454 600 Z" fill="#171724" stroke="#2b2b3d" stroke-width="2"/>
        <path d="M322.61615931651454 237.88765669520944 L429.30089480605807 210.09389308746904 L429.30089480605807 600 L322.61615931651454 600 Z" fill="#1d1d2c" opacity="1"/>
  <rect x="339.462755219874" y="257.88765669520944" width="16" height="22" rx="3" fill="#7C5CFF" opacity="0.6641655868384987"/>
  <rect x="350.3303512480611" y="312.88765669520944" width="16" height="22" rx="3" fill="#7C5CFF" opacity="0.5587078616023063"/>
  <rect x="348.98275098007576" y="422.88765669520944" width="16" height="22" rx="3" fill="#7C5CFF" opacity="0.4580955318175256"/>
  <rect x="358.1749215500688" y="477.88765669520944" width="16" height="22" rx="3" fill="#7C5CFF" opacity="0.8246832734672352"/>
  <rect x="387.33953149822617" y="587.8876566952094" width="16" height="22" rx="3" fill="#7C5CFF" opacity="0.4695396018447354"/>
  </g>
  <g>
        <path d="M436.0468837370475 250.06904480978847 L489.52635103681433 218.77605970948935 L543.0058183365811 250.06904480978847 L543.0058183365811 600 L436.0468837370475 600 Z" fill="#171724" stroke="#2b2b3d" stroke-width="2"/>
        <path d="M436.0468837370475 250.06904480978847 L489.52635103681433 218.77605970948935 L489.52635103681433 600 L436.0468837370475 600 Z" fill="#FBBF24" opacity="0.45"/>
  <rect x="460.2379246885199" y="270.06904480978847" width="16" height="22" rx="3" fill="#7C5CFF" opacity="0.40822247359901664"/>
  <rect x="457.011258925767" y="545.0690448097885" width="16" height="22" rx="3" fill="#7C5CFF" opacity="0.6148658191319555"/>
  </g>
  <g>
        <path d="M585.8026233387905 303.90014608204365 L621.8749171556233 270.18780978396535 L657.9472109724561 303.90014608204365 L657.9472109724561 600 L585.8026233387905 600 Z" fill="#171724" stroke="#2b2b3d" stroke-width="2"/>
        <path d="M585.8026233387905 303.90014608204365 L621.8749171556233 270.18780978396535 L621.8749171556233 600 L585.8026233387905 600 Z" fill="#1d1d2c" opacity="1"/>
  <rect x="599.678292769133" y="378.90014608204365" width="16" height="22" rx="3" fill="#7C5CFF" opacity="0.6160288201877847"/>
  <rect x="599.7165746774737" y="433.90014608204365" width="16" height="22" rx="3" fill="#7C5CFF" opacity="0.6787946407217532"/>
  </g>
  <g>
        <path d="M704.7157481310164 407.2576555069536 L758.9996338726228 379.81512271799147 L813.2835196142291 407.2576555069536 L813.2835196142291 600 L704.7157481310164 600 Z" fill="#171724" stroke="#2b2b3d" stroke-width="2"/>
        <path d="M704.7157481310164 407.2576555069536 L758.9996338726228 379.81512271799147 L758.9996338726228 600 L704.7157481310164 600 Z" fill="#1d1d2c" opacity="1"/>
  <rect x="729.4485697224521" y="482.2576555069536" width="16" height="22" rx="3" fill="#7C5CFF" opacity="0.3720034415833652"/>
  <rect x="727.3079991876979" y="537.2576555069536" width="16" height="22" rx="3" fill="#7C5CFF" opacity="0.4778469783719629"/>
  </g>
  <g>
        <path d="M812.4309738834078 327.56016201432794 L888.1936979705157 296.214825916104 L963.9564220576236 327.56016201432794 L963.9564220576236 600 L812.4309738834078 600 Z" fill="#171724" stroke="#2b2b3d" stroke-width="2"/>
        <path d="M812.4309738834078 327.56016201432794 L888.1936979705157 296.214825916104 L888.1936979705157 600 L812.4309738834078 600 Z" fill="#FBBF24" opacity="0.45"/>
  <rect x="854.7054568183714" y="347.56016201432794" width="16" height="22" rx="3" fill="#7C5CFF" opacity="0.5761066255159676"/>
  <rect x="841.3879573075836" y="512.560162014328" width="16" height="22" rx="3" fill="#7C5CFF" opacity="0.3965324935503304"/>
  <rect x="861.5614507426887" y="567.560162014328" width="16" height="22" rx="3" fill="#7C5CFF" opacity="0.7107673599617556"/>
  </g>
  <g>
        <path d="M945.5611079755342 232.26281088404357 L1027.1087158493335 204.09592534415424 L1108.6563237231328 232.26281088404357 L1108.6563237231328 600 L945.5611079755342 600 Z" fill="#171724" stroke="#2b2b3d" stroke-width="2"/>
        <path d="M945.5611079755342 232.26281088404357 L1027.1087158493335 204.09592534415424 L1027.1087158493335 600 L945.5611079755342 600 Z" fill="#1d1d2c" opacity="1"/>
  <rect x="998.357619741876" y="417.2628108840436" width="16" height="22" rx="3" fill="#7C5CFF" opacity="0.47500846316106615"/>
  <rect x="977.2270534069049" y="527.2628108840436" width="16" height="22" rx="3" fill="#7C5CFF" opacity="0.46941321252379564"/>
  </g>
  <g>
        <path d="M1062.8762794291188 453.5810668412596 L1116.475575411977 418.7782302964479 L1170.074871394835 453.5810668412596 L1170.074871394835 600 L1062.8762794291188 600 Z" fill="#171724" stroke="#2b2b3d" stroke-width="2"/>
        <path d="M1062.8762794291188 453.5810668412596 L1116.475575411977 418.7782302964479 L1116.475575411977 600 L1062.8762794291188 600 Z" fill="#1d1d2c" opacity="1"/>
  <rect x="1093.4485638435024" y="473.5810668412596" width="16" height="22" rx="3" fill="#7C5CFF" opacity="0.6447539468295872"/>
  <rect x="1085.5292952741156" y="528.5810668412596" width="16" height="22" rx="3" fill="#7C5CFF" opacity="0.6968649483984336"/>
  <rect x="1080.024172065165" y="583.5810668412596" width="16" height="22" rx="3" fill="#7C5CFF" opacity="0.5945923015475273"/>
  </g>
  <path d="M0 600 L1280 600 L1280 720 L0 720 Z" fill="#0d0d15"/>
  <rect x="30" y="654" width="86" height="5" rx="2" fill="#FBBF24" opacity="0.3"/>
  <rect x="180" y="654" width="86" height="5" rx="2" fill="#FBBF24" opacity="0.3"/>
  <rect x="330" y="654" width="86" height="5" rx="2" fill="#FBBF24" opacity="0.3"/>
  <rect x="480" y="654" width="86" height="5" rx="2" fill="#FBBF24" opacity="0.3"/>
  <rect x="630" y="654" width="86" height="5" rx="2" fill="#FBBF24" opacity="0.3"/>
  <rect x="780" y="654" width="86" height="5" rx="2" fill="#FBBF24" opacity="0.3"/>
  <rect x="930" y="654" width="86" height="5" rx="2" fill="#FBBF24" opacity="0.3"/>
  <rect x="1080" y="654" width="86" height="5" rx="2" fill="#FBBF24" opacity="0.3"/>
  <rect x="1230" y="654" width="86" height="5" rx="2" fill="#FBBF24" opacity="0.3"/>
  <rect width="1280" height="720" fill="none" stroke="#ffffff" stroke-opacity="0.06" stroke-width="2"/>
</svg>