<svg xmlns="http://www.w3.org/2000/svg" viewBox="0 0 1280 720" width="1280" height="720" role="img" aria-label="roleplay-starter-pack">
  <defs>
    <linearGradient id="bg" x1="0" y1="0" x2="1" y2="1">
      <stop offset="0%" stop-color="#f8fafd"/><stop offset="55%" stop-color="#eaf0fa"/><stop offset="100%" stop-color="#ffffff"/>
    </linearGradient>
    <linearGradient id="accent" x1="0" y1="0" x2="1" y2="1">
      <stop offset="0%" stop-color="#7e22ce"/><stop offset="100%" stop-color="#be185d"/>
    </linearGradient>
    <radialGradient id="glow"><stop offset="0%" stop-color="#7e22ce" stop-opacity="0.5"/><stop offset="100%" stop-color="#7e22ce" stop-opacity="0"/></radialGradient>
    <pattern id="grid" width="48" height="48" patternUnits="userSpaceOnUse">
      <path d="M48 0H0V48" fill="none" stroke="#0b1b31" stroke-opacity="0.035" stroke-width="1"/>
    </pattern>
  </defs>
  <rect width="1280" height="720" fill="url(#bg)"/>
  <rect width="1280" height="720" fill="url(#grid)"/>
  <ellipse cx="514.7851903438568" cy="446.4" rx="704" ry="216" fill="url(#glow)" opacity="0.55"/>
  <g>
        <path d="M79.26389891188592 482.5332605484873 L187.4118072714191 441.0026833880693 L295.55971563095227 482.5332605484873 L295.55971563095227 600 L79.26389891188592 600 Z" fill="#e4eaf6" stroke="#c3cee1" stroke-width="2"/>
        <path d="M79.26389891188592 482.5332605484873 L187.4118072714191 441.0026833880693 L187.4118072714191 600 L79.26389891188592 600 Z" fill="#7e22ce" opacity="0.45"/>
  <rect x="95.10755029230754" y="502.5332605484873" width="16" height="22" rx="3" fill="#be185d" opacity="0.815906506520696"/>
  </g>
  <g>
        <path d="M201.871938758478 406.0843620300293 L254.52050612838423 378.54756200686097 L307.16907349829046 406.0843620300293 L307.16907349829046 600 L201.871938758478 600 Z" fill="#e4eaf6" stroke="#c3cee1" stroke-width="2"/>
        <path d="M201.871938758478 406.0843620300293 L254.52050612838423 378.54756200686097 L254.52050612838423 600 L201.871938758478 600 Z" fill="#d6dfef" opacity="1"/>
  <rect x="226.69970615668296" y="536.0843620300293" width="16" height="22" rx="3" fill="#be185d" opacity="0.40211832874920217"/>
  <rect x="220.29006422050293" y="591.0843620300293" width="16" height="22" rx="3" fill="#be185d" opacity="0.8229915373027324"/>
  </g>
  <g>
        <path d="M327.3177233607405 419.7028435347602 L362.4993902678964 379.38754863571376 L397.6810571750523 419.7028435347602 L397.6810571750523 600 L327.3177233607405 600 Z" fill="#e4eaf6" stroke="#c3cee1" stroke-width="2"/>
        <path d="M327.3177233607405 419.7028435347602 L362.4993902678964 379.38754863571376 L362.4993902678964 600 L327.3177233607405 600 Z" fill="#d6dfef" opacity="1"/>
  <rect x="339.682908359149" y="439.7028435347602" width="16" height="22" rx="3" fill="#be185d" opacity="0.6359058295143768"/>
  <rect x="339.45882137519754" y="604.7028435347602" width="16" height="22" rx="3" fill="#be185d" opacity="0.5609284366015345"/>
  </g>
  <g>
        <path d="M444.79246682565037 361.5946980379522 L550.7910871199176 332.83748030662537 L656.7897074141849 361.5946980379522 L656.7897074141849 600 L444.79246682565037 600 Z" fill="#e4eaf6" stroke="#c3cee1" stroke-width="2"/>
        <path d="M444.79246682565037 361.5946980379522 L550.7910871199176 332.83748030662537 L550.7910871199176 600 L444.79246682565037 600 Z" fill="#7e22ce" opacity="0.45"/>
  <rect x="507.2354245443229" y="436.5946980379522" width="16" height="22" rx="3" fill="#be185d" opacity="0.35917262502480296"/>
  <rect x="470.55994504355834" y="491.5946980379522" width="16" height="22" rx="3" fill="#be185d" opacity="0.6187997170723974"/>
  <rect x="467.7929318385505" y="546.5946980379522" width="16" height="22" rx="3" fill="#be185d" opacity="0.5225419567665085"/>
  </g>
  <g>
        <path d="M573.5663935242014 217.62299179192632 L614.0525900773032 190.7293204916641 L654.538786630405 217.62299179192632 L654.538786630405 600 L573.5663935242014 600 Z" fill="#e4eaf6" stroke="#c3cee1" stroke-width="2"/>
        <path d="M573.5663935242014 217.62299179192632 L614.0525900773032 190.7293204916641 L614.0525900773032 600 L573.5663935242014 600 Z" fill="#d6dfef" opacity="1"/>
  <rect x="589.4758808302174" y="237.62299179192632" width="16" height="22" rx="3" fill="#be185d" opacity="0.8348309330409392"/>
  <rect x="590.2738008514339" y="292.6229917919263" width="16" height="22" rx="3" fill="#be185d" opacity="0.7910418103216216"/>
  <rect x="586.5831751939656" y="457.6229917919263" width="16" height="22" rx="3" fill="#be185d" opacity="0.805483354977332"/>
  <rect x="585.8116589780011" y="567.6229917919263" width="16" height="22" rx="3" fill="#be185d" opacity="0.5558238070458174"/>
  </g>
  <g>
        <path d="M692.6717873217744 311.1279815239832 L765.4806456281544 275.08154183160514 L838.2895039345344 311.1279815239832 L838.2895039345344 600 L692.6717873217744 600 Z" fill="#e4eaf6" stroke="#c3cee1" stroke-width="2"/>
        <path d="M692.6717873217744 311.1279815239832 L765.4806456281544 275.08154183160514 L765.4806456281544 600 L692.6717873217744 600 Z" fill="#d6dfef" opacity="1"/>
  <rect x="743.0712807823002" y="331.1279815239832" width="16" height="22" rx="3" fill="#be185d" opacity="0.40125409527681766"/>
  <rect x="714.7011807482794" y="496.1279815239832" width="16" height="22" rx="3" fill="#be185d" opacity="0.3924003183143213"/>
  <rect x="734.8212736941833" y="551.1279815239832" width="16" height="22" rx="3" fill="#be185d" opacity="0.39806228133384136"/>
  </g>
  <g>
        <path d="M820.9723407581138 311.96370277088135 L856.5713591959017 274.19414191972464 L892.1703776336896 311.96370277088135 L892.1703776336896 600 L820.9723407581138 600 Z" fill="#e4eaf6" stroke="#c3cee1" stroke-width="2"/>
        <path d="M820.9723407581138 311.96370277088135 L856.5713591959017 274.19414191972464 L856.5713591959017 600 L820.9723407581138 600 Z" fill="#7e22ce" opacity="0.45"/>
  <rect x="833.2819742177456" y="386.96370277088135" width="16" height="22" rx="3" fill="#be185d" opacity="0.4527164477854967"/>
  <rect x="833.8108373645834" y="496.96370277088135" width="16" height="22" rx="3" fill="#be185d" opacity="0.5378995220176875"/>
  <rect x="833.5678328203728" y="551.9637027708814" width="16" height="22" rx="3" fill="#be185d" opacity="0.44485769388265906"/>
  </g>
  <g>
        <path d="M932.6858517468079 198.7233327003196 L1025.2897727779216 158.0964112887159 L1117.8936938090353 198.7233327003196 L1117.8936938090353 600 L932.6858517468079 600 Z" fill="#e4eaf6" stroke="#c3cee1" stroke-width="2"/>
        <path d="M932.6858517468079 198.7233327003196 L1025.2897727779216 158.0964112887159 L1025.2897727779216 600 L932.6858517468079 600 Z" fill="#d6dfef" opacity="1"/>
  <rect x="960.1299926668755" y="273.7233327003196" width="16" height="22" rx="3" fill="#be185d" opacity="0.4086982398526743"/>
  <rect x="982.551512341544" y="328.7233327003196" width="16" height="22" rx="3" fill="#be185d" opacity="0.6934775714995339"/>
  <rect x="957.8063003593403" y="383.7233327003196" width="16" height="22" rx="3" fill="#be185d" opacity="0.6827025604667142"/>
  <rect x="961.7036449825706" y="438.7233327003196" width="16" height="22" rx="3" fill="#be185d" opacity="0.7307178229326382"/>
  <rect x="969.4592832532462" y="493.7233327003196" width="16" height="22" rx="3" fill="#be185d" opacity="0.43492351020686326"/>
  </g>
  <g>
        <path d="M1061.8644565069635 265.00828539859504 L1153.0942009743821 234.275191440247 L1244.3239454418008 265.00828539859504 L1244.3239454418008 600 L1061.8644565069635 600 Z" fill="#e4eaf6" stroke="#c3cee1" stroke-width="2"/>
        <path d="M1061.8644565069635 265.00828539859504 L1153.0942009743821 234.275191440247 L1153.0942009743821 600 L1061.8644565069635 600 Z" fill="#d6dfef" opacity="1"/>
  <rect x="1107.7457222271994" y="340.00828539859504" width="16" height="22" rx="3" fill="#be185d" opacity="0.7233049663715064"/>
  <rect x="1118.0392934161098" y="450.00828539859504" width="16" height="22" rx="3" fill="#be185d" opacity="0.5889133305987343"/>
  </g>
  <path d="M0 600 L1280 600 L1280 720 L0 720 Z" fill="#f8fafd"/>
  <rect x="30" y="654" width="86" height="5" rx="2" fill="#7e22ce" opacity="0.3"/>
  <rect x="180" y="654" width="86" height="5" rx="2" fill="#7e22ce" opacity="0.3"/>
  <rect x="330" y="654" width="86" height="5" rx="2" fill="#7e22ce" opacity="0.3"/>
  <rect x="480" y="654" width="86" height="5" rx="2" fill="#7e22ce" opacity="0.3"/>
  <rect x="630" y="654" width="86" height="5" rx="2" fill="#7e22ce" opacity="0.3"/>
  <rect x="780" y="654" width="86" height="5" rx="2" fill="#7e22ce" opacity="0.3"/>
  <rect x="930" y="654" width="86" height="5" rx="2" fill="#7e22ce" opacity="0.3"/>
  <rect x="1080" y="654" width="86" height="5" rx="2" fill="#7e22ce" opacity="0.3"/>
  <rect x="1230" y="654" width="86" height="5" rx="2" fill="#7e22ce" opacity="0.3"/>
  <rect width="1280" height="720" fill="none" stroke="#0b1b31" stroke-opacity="0.06" stroke-width="2"/>
</svg>